<?xml version="1.0" standalone="no"?>
<!DOCTYPE svg PUBLIC "-//W3C//DTD SVG 20010904//EN"
 "http://www.w3.org/TR/2001/REC-SVG-20010904/DTD/svg10.dtd">
<svg version="1.0" xmlns="http://www.w3.org/2000/svg"
 width="512.000000pt" height="512.000000pt" viewBox="0 0 512.000000 512.000000"
 preserveAspectRatio="xMidYMid meet">

<g transform="translate(0.000000,512.000000) scale(0.100000,-0.100000)"
fill="#000000" stroke="none">
<path d="M2168 5105 c-214 -37 -391 -129 -553 -287 -89 -87 -89 -87 -110 -68
-74 70 -172 29 -225 -95 -49 -115 -93 -391 -89 -569 l2 -99 -47 -12 c-91 -23
-169 -112 -209 -239 -19 -60 -22 -93 -22 -221 0 -126 4 -163 23 -230 64 -220
192 -378 334 -409 l52 -12 13 -68 c56 -308 255 -606 520 -783 l83 -55 0 -131
0 -132 -140 -214 c-77 -118 -145 -220 -151 -227 -5 -6 -38 -22 -72 -35 -195
-72 -424 -191 -607 -317 -271 -185 -512 -429 -695 -701 -89 -132 -102 -171
-66 -191 27 -14 4675 -14 4702 0 35 19 22 58 -56 176 -312 469 -779 837 -1312
1033 -34 13 -67 29 -72 35 -6 7 -78 115 -160 242 l-151 229 0 125 0 126 65 43
c95 62 232 196 304 298 98 138 185 337 206 473 11 76 12 77 63 82 71 7 120 35
194 109 210 212 263 648 106 884 -32 49 -103 102 -148 111 -25 5 -25 6 -21 97
4 106 -12 270 -40 410 -35 178 -87 272 -163 297 -42 14 -79 1 -126 -45 l-35
-35 -51 59 c-142 164 -314 273 -524 329 -91 24 -108 25 -420 28 -237 2 -346
-1 -402 -11z m728 -96 c183 -32 380 -135 500 -261 72 -76 125 -150 119 -167
-18 -46 -24 -175 -15 -291 5 -69 17 -216 25 -326 15 -216 28 -269 73 -304 73
-58 197 25 273 183 21 43 26 47 49 42 102 -25 161 -145 168 -340 6 -187 -35
-331 -131 -462 -65 -87 -121 -118 -209 -116 -42 1 -70 -2 -76 -10 -6 -7 -15
-47 -22 -90 -36 -239 -136 -440 -308 -619 -257 -267 -611 -388 -975 -333 -492
74 -878 463 -946 956 -11 84 -27 103 -77 93 -47 -9 -126 30 -178 87 -210 233
-218 718 -14 825 50 26 72 19 97 -33 36 -75 87 -139 138 -172 54 -36 99 -40
135 -11 46 35 58 88 74 312 8 116 18 260 23 321 9 115 1 250 -18 300 -17 44
-14 51 40 116 117 141 309 252 510 296 79 17 654 21 745 4z m164 -3206 l-1
-118 -243 -210 c-134 -115 -249 -210 -255 -210 -7 0 -127 99 -267 220 l-254
219 0 103 0 102 64 -24 c233 -88 500 -102 738 -40 53 13 120 35 149 49 30 13
57 25 62 25 4 1 7 -52 7 -116z m-699 -506 l137 -118 -86 -167 c-47 -92 -115
-224 -152 -294 l-66 -126 -234 285 c-129 157 -236 289 -238 294 -3 7 18 42
192 307 l87 133 112 -98 c62 -54 173 -151 248 -216z m908 85 c73 -112 131
-207 129 -211 -2 -5 -109 -137 -237 -294 l-235 -286 -66 127 c-37 70 -105 202
-152 294 l-86 167 247 214 c181 158 249 211 257 203 6 -6 71 -102 143 -214z
m-1364 -594 c161 -196 284 -338 294 -338 9 0 22 4 30 9 8 5 81 137 161 293
130 252 149 283 170 283 21 0 40 -31 170 -281 80 -154 149 -286 153 -292 5 -7
19 -12 32 -12 19 0 77 65 296 332 149 183 275 337 280 342 20 22 364 -143 543
-260 274 -179 545 -442 715 -693 23 -33 41 -62 41 -65 0 -4 -1003 -6 -2230 -6
-1227 0 -2230 2 -2230 6 0 11 85 129 160 222 94 117 294 314 410 404 108 83
259 182 375 244 107 58 325 154 342 151 6 -1 136 -154 288 -339z"/>
<path d="M1777 3882 c-22 -24 -21 -45 1 -65 16 -15 50 -17 265 -17 234 0 248
1 267 20 11 11 20 25 20 30 0 6 -9 19 -20 30 -19 19 -33 20 -268 20 -228 0
-250 -2 -265 -18z"/>
<path d="M2787 3882 c-22 -24 -21 -45 1 -65 16 -15 50 -17 270 -17 l252 0 16
25 c15 23 15 27 0 50 l-16 25 -254 0 c-232 0 -254 -1 -269 -18z"/>
<path d="M1964 3696 c-29 -29 -34 -41 -34 -81 0 -40 5 -52 34 -81 26 -26 42
-34 70 -34 49 0 92 23 111 60 42 82 -14 170 -111 170 -28 0 -44 -8 -70 -34z"/>
<path d="M2974 3696 c-29 -29 -34 -41 -34 -81 0 -40 5 -52 34 -81 26 -26 42
-34 70 -34 49 0 92 23 111 60 42 82 -14 170 -111 170 -28 0 -44 -8 -70 -34z"/>
<path d="M2628 3679 c-17 -9 -18 -34 -18 -299 0 -276 1 -290 19 -300 27 -14
37 -13 55 6 14 13 16 54 16 294 0 277 0 279 -22 294 -26 19 -27 19 -50 5z"/>
<path d="M1175 3573 c-35 -34 12 -208 70 -263 26 -25 59 -20 75 10 8 15 3 32
-20 77 -16 32 -34 82 -40 112 -6 30 -15 60 -21 68 -16 18 -44 16 -64 -4z"/>
<path d="M3841 3577 c-6 -8 -15 -38 -21 -68 -6 -30 -23 -80 -40 -111 -16 -32
-27 -64 -24 -73 9 -21 41 -37 62 -31 38 13 102 157 102 230 0 54 -50 87 -79
53z"/>
<path d="M2262 3014 c-109 -29 -192 -100 -304 -259 -75 -107 -85 -110 -187
-66 -38 17 -77 31 -86 31 -53 0 -104 -64 -91 -114 10 -39 93 -144 142 -179
123 -87 261 -89 388 -4 28 19 88 69 134 111 45 42 86 76 91 76 5 0 23 -16 39
-36 33 -40 112 -84 151 -84 55 0 105 23 156 71 29 27 55 49 58 49 3 0 49 -40
102 -90 64 -59 120 -101 163 -122 60 -30 76 -33 152 -33 73 0 92 4 135 27 99
52 195 170 195 239 0 29 -7 43 -31 63 -39 33 -62 33 -144 -4 -108 -48 -106
-49 -210 98 -102 144 -194 212 -314 233 -67 12 -153 0 -215 -31 -38 -18 -40
-19 -75 0 -36 18 -136 41 -175 39 -12 0 -45 -7 -74 -15z"/>
</g>
</svg>
